<svg width="355" height="162" viewBox="0 0 355 162" fill="none" xmlns="http://www.w3.org/2000/svg">
<path d="M2.50034 153.4C19.2651 150.922 57.8857 148.145 57.8857 123.267C57.8857 109.258 41.4935 109.083 34.9677 119.447C29.368 128.341 28.8805 150.514 41.1215 154.885C67.5837 164.336 95.834 154.589 120.91 145.867C157.521 133.132 194.784 105.774 215.341 72.2318C223.327 59.2017 248.222 3.48332 213.644 2.52276C158.812 0.999573 148.163 76.3016 169.611 114.248C178.598 130.149 200.163 140.318 217.463 142.79C236.574 145.52 266.027 131.13 269.772 110.535C272.851 93.5976 254.259 100.254 249.93 111.384C243.584 127.703 258.192 139.696 273.273 140.031C297.954 140.58 317.613 126.733 333.963 109.474C338.788 104.381 348.412 90.7687 349.985 83.6909C351.415 77.2539 351.161 81.2626 350.197 85.6007C349.294 89.6648 352.001 93.7726 352.001 98.0146C352.001 99.5063 350.091 90.2585 350.091 87.5105C350.091 74.442 332.587 85.0908 325.263 86.5556" stroke="#1C1C1C" stroke-width="5" stroke-linecap="round"/>
</svg>
